<svg width="164" height="24" viewBox="0 0 164 24" fill="none" xmlns="http://www.w3.org/2000/svg">
<g clip-path="url(#clip0_1661_2394)">
<path d="M89.2334 19.7053V11.7795C89.2334 9.87111 88.3886 8.89029 86.8841 8.89029C85.3797 8.89029 84.456 9.87111 84.456 11.7795V19.7053H80.4446V11.7795C80.4446 9.87111 79.5998 8.89029 78.0953 8.89029C76.5909 8.89029 75.6672 9.87111 75.6672 11.7795V19.7053H71.6558V5.49841H75.6672V7.51332C76.5909 6.32077 77.8056 5.2334 79.8379 5.2334C81.6851 5.2334 83.0849 6.05576 83.8235 7.486C85.0641 6.02843 86.5427 5.2334 88.4689 5.2334C91.4506 5.2334 93.2462 7.03521 93.2462 10.4544V19.7053H89.2347H89.2334Z" fill="#0772E4"/>
<path d="M108.632 14.0075H98.788C99.1838 15.8366 100.45 16.7901 102.246 16.7901C103.593 16.7901 104.568 16.3666 105.676 15.3325L107.973 17.3734C106.653 19.0168 104.753 20.0235 102.193 20.0235C97.9433 20.0235 94.8024 17.0278 94.8024 12.6811V12.6278C94.8024 8.57201 97.6794 5.2334 101.797 5.2334C106.521 5.2334 108.685 8.91761 108.685 12.9461V12.9993C108.685 13.3969 108.66 13.6359 108.632 14.0061V14.0075ZM101.797 8.46819C100.135 8.46819 99.0519 9.66074 98.735 11.4899H104.779C104.541 9.68806 103.485 8.46819 101.796 8.46819H101.797Z" fill="#0772E4"/>
<path d="M118.715 9.44785C116.049 9.44785 114.412 11.0652 114.412 14.4571V19.7055H110.401V5.49862H114.412V8.36184C115.231 6.4002 116.551 5.12842 118.926 5.2336V9.44785H118.715Z" fill="#0772E4"/>
<path d="M128.366 19.7055V18.1687C127.389 19.2561 126.043 19.9705 124.091 19.9705C121.424 19.9705 119.234 18.4338 119.234 15.6238V15.5705C119.234 12.4696 121.584 11.038 124.935 11.038C126.361 11.038 127.389 11.2771 128.393 11.6213V11.3822C128.393 9.71293 127.363 8.78403 125.358 8.78403C123.828 8.78403 122.745 9.07499 121.453 9.55311L120.449 6.47815C122.007 5.78966 123.537 5.33887 125.939 5.33887C130.321 5.33887 132.247 7.61879 132.247 11.4615V19.7042H128.367L128.366 19.7055ZM128.445 13.9805C127.759 13.6622 126.861 13.4504 125.885 13.4504C124.169 13.4504 123.114 14.1389 123.114 15.4121V15.4653C123.114 16.5527 124.012 17.1879 125.305 17.1879C127.18 17.1879 128.446 16.1538 128.446 14.6963V13.9805H128.445Z" fill="#0772E4"/>
<path d="M143.409 19.7053V11.7795C143.409 9.87111 142.512 8.89029 140.981 8.89029C139.451 8.89029 138.474 9.87111 138.474 11.7795V19.7053H134.463V5.49841H138.474V7.51332C139.398 6.32077 140.585 5.2334 142.618 5.2334C145.652 5.2334 147.421 7.24831 147.421 10.5077V19.7053H143.409Z" fill="#0772E4"/>
<path d="M156.109 24.0001C153.813 24.0001 151.649 23.4701 149.853 22.5152L151.226 19.4935C152.677 20.3159 154.128 20.7926 156.003 20.7926C158.748 20.7926 160.042 19.4676 160.042 16.9226V16.2341C158.854 17.6657 157.56 18.54 155.422 18.54C152.123 18.54 149.14 16.1276 149.14 11.9133V11.8601C149.14 7.61987 152.175 5.2334 155.422 5.2334C157.612 5.2334 158.906 6.16094 159.989 7.3535V5.49841H164V16.4992C164 21.8527 161.361 24.0001 156.109 24.0001ZM160.042 11.8601C160.042 9.92575 158.537 8.57337 156.584 8.57337C154.63 8.57337 153.153 9.92575 153.153 11.8601V11.9133C153.153 13.875 154.632 15.2 156.584 15.2C158.536 15.2 160.042 13.8477 160.042 11.9133V11.8601Z" fill="#0772E4"/>
<path d="M29.7956 5.40816C28.8584 5.40816 27.9402 5.55706 27.0683 5.84939L26.7105 5.9696V0H21.9454V12.9473C22.0366 16.9949 25.391 20.0535 29.748 20.0535C34.105 20.0535 37.605 16.8365 37.605 12.7288V12.6755C37.6023 10.7357 36.8256 8.92162 35.4177 7.56924C33.969 6.17588 31.9721 5.40953 29.7956 5.40953V5.40816ZM33.1977 12.6823C33.1977 14.7997 31.8007 16.2791 29.8011 16.2791C27.8015 16.2791 26.3514 14.7095 26.3514 12.6291V12.5758C26.3514 10.4584 27.7484 8.979 29.748 8.979C31.7476 8.979 33.1977 10.5486 33.1977 12.6291V12.6823Z" fill="#0772E4"/>
<path d="M12.0263 11.5568C11.1652 10.6894 11.1652 9.28099 12.0263 8.40946L18.1068 2.28412C18.9012 1.48499 18.338 0.116211 17.2144 0.116211H14.5333C10.9136 0.116211 7.44895 1.56148 4.89025 4.13647L0.646161 8.40946C-0.214899 9.27689 -0.214899 10.6853 0.646161 11.5568L4.98819 15.9282C7.54689 18.5031 11.017 19.9484 14.6312 19.9484H17.3124C18.4346 19.9484 18.9991 18.581 18.2047 17.7805L12.0277 11.5568H12.0263Z" fill="#0772E4"/>
<path d="M62.501 5.2334C58.0936 5.2334 54.8208 8.54605 54.8208 12.6278V12.6811C54.8208 16.7628 58.0678 20.0235 62.4493 20.0235C66.8308 20.0235 70.1294 16.7109 70.1294 12.6292V12.5759C70.1294 8.49414 66.8824 5.2334 62.501 5.2334ZM65.8976 12.6811C65.8976 14.7984 64.5006 16.2779 62.501 16.2779C60.5013 16.2779 59.0513 14.7083 59.0513 12.6278V12.5745C59.0513 10.4571 60.4483 8.97772 62.4479 8.97772C64.4475 8.97772 65.8976 10.5473 65.8976 12.6278V12.6811Z" fill="#0772E4"/>
<path d="M46.2416 5.2334C41.8342 5.2334 38.5614 8.54605 38.5614 12.6278V12.6811C38.5614 16.7628 41.8084 20.0235 46.1899 20.0235C50.5714 20.0235 53.87 16.7109 53.87 12.6292V12.5759C53.87 8.49414 50.623 5.2334 46.2416 5.2334ZM49.6382 12.6811C49.6382 14.7984 48.2412 16.2779 46.2416 16.2779C44.2419 16.2779 42.7919 14.7083 42.7919 12.6278V12.5745C42.7919 10.4571 44.1889 8.97772 46.1885 8.97772C48.1881 8.97772 49.6382 10.5473 49.6382 12.6278V12.6811Z" fill="#0772E4"/>
</g>
<defs>
<clipPath id="clip0_1661_2394">
<rect width="164" height="24" fill="white"/>
</clipPath>
</defs>
</svg>
